<?xml version="1.0" encoding="iso-8859-1"?>
<!-- Generator: Adobe Illustrator 23.0.4, SVG Export Plug-In . SVG Version: 6.00 Build 0)  -->
<svg version="1.1" xmlns="http://www.w3.org/2000/svg" xmlns:xlink="http://www.w3.org/1999/xlink" x="0px" y="0px"
	 viewBox="0 0 64 64" style="enable-background:new 0 0 64 64;" xml:space="preserve">
<g id="big-bottle-water">
	<path style="fill:#0A5CA4;" d="M50.859,30.259c0.52,0,0.944-0.421,0.944-0.941v-3.916c0-0.522-0.424-0.944-0.944-0.944h-0.471
		v-0.495c0-2.164-1.062-4.192-2.839-5.424l-10.6-7.352c-0.254-0.175-0.404-0.466-0.404-0.774V7.628h0.392
		c0.522,0,0.944-0.421,0.944-0.944V0.941C37.881,0.421,37.46,0,36.938,0H27.06c-0.52,0-0.941,0.421-0.941,0.941v5.742
		c0,0.522,0.421,0.944,0.941,0.944h0.394v2.785c0,0.308-0.153,0.599-0.407,0.776L16.45,18.535c-1.779,1.235-2.839,3.263-2.839,5.427
		v0.495h-0.473c-0.52,0-0.941,0.421-0.941,0.944v3.916c0,0.52,0.421,0.941,0.941,0.941h0.473v6.883h-0.473
		c-0.52,0-0.941,0.424-0.941,0.944v3.916c0,0.522,0.421,0.944,0.941,0.944h0.473v6.883h-0.473c-0.52,0-0.941,0.421-0.941,0.944
		v3.916c0,0.52,0.421,0.941,0.941,0.941h0.473v4.254c0,2.27,1.843,4.116,4.113,4.116h28.548c2.27,0,4.116-1.846,4.116-4.116v-4.254
		h0.471c0.52,0,0.944-0.421,0.944-0.941v-3.916c0-0.522-0.424-0.944-0.944-0.944h-0.471v-6.883h0.471
		c0.52,0,0.944-0.421,0.944-0.944v-3.916c0-0.52-0.424-0.944-0.944-0.944h-0.471v-6.883H50.859z M28.004,1.885h7.99v3.857h-7.99
		V1.885z M15.497,23.962c0-1.548,0.757-2.994,2.028-3.877l10.597-7.349c0.762-0.527,1.217-1.395,1.217-2.324V7.628h5.318v2.785
		c0,0.929,0.456,1.797,1.217,2.324l10.597,7.349c1.272,0.882,2.028,2.331,2.028,3.877v0.495H15.497V23.962z M48.501,59.884
		c0,1.227-0.998,2.228-2.228,2.228H17.725c-1.227,0-2.228-1.001-2.228-2.228v-4.254h33.004V59.884z M49.916,53.745H14.082v-2.031
		h35.833V53.745z M15.497,49.829v-6.883h33.004v6.883H15.497z M49.916,41.061H14.082V39.03h35.833V41.061z M15.497,37.142v-6.883
		h33.004v6.883H15.497z M49.916,28.374H14.082v-2.031h35.833V28.374z"/>
	<path style="fill:#D0E7F2;" d="M48.501,23.962v0.495H15.497v-0.495c0-1.548,0.757-2.994,2.028-3.877l10.597-7.349
		c0.762-0.527,1.217-1.395,1.217-2.324V7.628h5.318v2.785c0,0.929,0.456,1.797,1.217,2.324l10.597,7.349
		C47.744,20.968,48.501,22.417,48.501,23.962z M15.497,55.631v4.254c0,1.227,1.001,2.228,2.228,2.228h28.548
		c1.23,0,2.228-1.001,2.228-2.228v-4.254H15.497z M15.497,42.946v6.883h33.004v-6.883H15.497z M15.497,30.259v6.883h33.004v-6.883
		H15.497z"/>
</g>
<g id="Layer_1">
</g>
</svg>
